<svg xmlns="http://www.w3.org/2000/svg" viewBox="0 0 70.59 57.07"><defs><style>.cls-1{fill:#fff;}.cls-2{fill:#d6d6d6;}</style></defs><title>lessons</title><g id="Layer_2" data-name="Layer 2"><g id="Capa_1" data-name="Capa 1"><polygon class="cls-1" points="12.33 41.18 3.02 50.05 9.78 50.84 11.54 57.07 20.32 48.47 12.33 41.18"/><polygon class="cls-2" points="11.19 52.06 17.41 51.31 20.32 48.47 12.33 41.18 9.82 43.57 11.19 52.06"/><polygon class="cls-1" points="59.85 41.18 69.16 50.05 62.4 50.84 60.65 57.07 51.87 48.47 59.85 41.18"/><polygon class="cls-2" points="61 52.06 54.77 51.31 51.87 48.47 59.85 41.18 62.36 43.57 61 52.06"/><path class="cls-1" d="M9.93,37l2.43,13.3s31.45-2.75,47.18.25l2.71-13.23S46.67,33.3,9.93,37Z"/><polygon class="cls-1" points="34.91 0 39.85 9.91 50.89 11.51 42.9 19.22 44.79 30.12 34.91 24.98 25.04 30.12 26.92 19.22 18.93 11.51 29.98 9.91 34.91 0"/><polygon class="cls-2" points="59.64 11.82 63.02 18.62 70.59 19.7 65.11 25 66.41 32.46 59.64 28.94 52.87 32.46 54.16 25 48.69 19.7 56.25 18.62 59.64 11.82"/><polygon class="cls-1" points="10.95 11.82 14.34 18.62 21.9 19.7 16.43 25 17.72 32.47 10.95 28.94 4.18 32.47 5.47 25 0 19.7 7.57 18.62 10.95 11.82"/></g></g></svg>