<svg xmlns="http://www.w3.org/2000/svg" viewBox="0 0 10.22 14.61"><defs><style>.cls-1{fill:#fff;}</style></defs><title>lock</title><g id="Layer_2" data-name="Layer 2"><g id="Capa_1" data-name="Capa 1"><path class="cls-1" d="M8.14,14.61H2.08A2.08,2.08,0,0,1,0,12.53v-5A2.08,2.08,0,0,1,2.08,5.4H8.14a2.08,2.08,0,0,1,2.08,2.08v5A2.08,2.08,0,0,1,8.14,14.61ZM2.08,7.18a.3.3,0,0,0-.3.3v5a.3.3,0,0,0,.3.3H8.14a.31.31,0,0,0,.31-.3v-5a.31.31,0,0,0-.31-.3Z"/><path class="cls-1" d="M2.52,6.29H.74V4.37a4.37,4.37,0,0,1,8.74,0H7.7a2.59,2.59,0,0,0-5.18,0Z"/></g></g></svg>