<svg xmlns="http://www.w3.org/2000/svg" viewBox="0 0 55.94 55.88"><defs><style>.cls-1{fill:#fff;}</style></defs><title>store</title><g id="Layer_2" data-name="Layer 2"><g id="Capa_1" data-name="Capa 1"><path class="cls-1" d="M50.25,36.35v5.37H17.38c-5.22,0-8-4.49-5-8.8,3.09-4.46,3-8.26.28-12.79A105.48,105.48,0,0,1,6.5,7.41C5.77,5.76,4.87,5.07,3.11,5.3A24.68,24.68,0,0,1,0,5.32V0C2.81,0,5.65-.08,8.47.12c.55,0,1.24,1.22,1.46,2,.83,2.91,2.61,3.6,5.58,3.55,12.18-.2,24.36-.09,36.54-.08,3.77,0,4.84,1.78,3,5.05-3,5.43-6.09,10.84-9,16.3a6.36,6.36,0,0,1-6.15,3.61c-5.75,0-11.5.09-17.24-.06-2.12-.06-3.31.54-4.24,2.5-1.62,3.43-1.76,3.37,2,3.37H50.25Z"/><path class="cls-1" d="M44.93,44.94a5.46,5.46,0,1,1-5.64,5.26A5.44,5.44,0,0,1,44.93,44.94Z"/><path class="cls-1" d="M16.79,44.94a5.23,5.23,0,0,1,5.37,5.46,5.45,5.45,0,1,1-10.9-.15A5.26,5.26,0,0,1,16.79,44.94Z"/></g></g></svg>