<svg xmlns="http://www.w3.org/2000/svg" viewBox="0 0 50.62 46.82"><defs><style>.cls-1{fill:#fff;}</style></defs><title>documentation</title><g id="Layer_2" data-name="Layer 2"><g id="Capa_1" data-name="Capa 1"><path class="cls-1" d="M48.54,9.57c-3.09,10.16-6.15,20.23-9.2,30.3-.74,2.44-1.51,3-4.11,3H22.83c-4.93,0-9.85.09-14.77-.06a10,10,0,0,1-4-1.31c-.42-.22-.65-1.31-.53-1.9.08-.34,1-.56,1.62-.71a5.69,5.69,0,0,1,1.37,0H30.37c4.21,0,5.09-.62,6.45-4.58.56-1.61,1-3.26,1.49-4.89,2.36-7.83,4.74-15.65,7.07-23.49,1-3.54-.67-5.84-4.33-5.9-1.31,0-2.62,0-3.94,0-6.68.08-13.38.42-20,.11-3-.14-4,1.15-4.82,3.4a28,28,0,0,1-1.42,2.56,4.22,4.22,0,0,0-.61,1.76,11.09,11.09,0,0,1-2.6,7,2.63,2.63,0,0,0-.73,1.53c.24,2.86-1,5.19-2.43,7.5a5.8,5.8,0,0,0-.6,1.4,28.67,28.67,0,0,1-1.39,4.84A30,30,0,0,0,.12,37.41c-.91,4.34,3.34,9.4,7.8,9.4,9.32,0,18.64,0,28,0a6,6,0,0,0,6-4.29c2.91-9.38,5.72-18.78,8.55-28.18C51,12.31,50.29,10.78,48.54,9.57ZM23.2,26.26c-1,2.82-2,5.63-3,8.45-.11.29-.22.4-.53.36s-.8-.06-1.25-.08c.31-.89.61-1.74.91-2.58,1-2.82,2-5.63,3-8.45.1-.29.22-.4.53-.36s.79.06,1.25.08C23.79,24.57,23.5,25.42,23.2,26.26Zm3,7.34a.54.54,0,0,1-.33.16c-.45,0-.91,0-1.46-.09l3.55-3.92-3-4.33c.57,0,1.08.06,1.58.11.06,0,.13.1.18.17l2.92,4.15ZM19.87,7.87c2.62,0,5.24,0,7.86,0,2.94,0,5.89,0,8.84,0,.74,0,2.19-.62,2,1-.15,1.24-.25,2.92-2.21,2.94-2.95,0-5.9,0-8.84,0-2.62,0-5.25.07-7.86,0-.76,0-2-.39-2.16-.88C17.13,9.69,18.69,7.88,19.87,7.87Zm-2.28,7.76c5,0,10.08,0,15.12,0h3.42c-.31,3.55-.72,4-3.67,4-5,0-10.08,0-15.12,0-.81,0-2.16-.46-2.29-1A2.56,2.56,0,0,1,17.59,15.63Zm-1.2,9.44a.47.47,0,0,1,.29-.16c.47,0,.93.05,1.5.09-1.22,1.35-2.38,2.62-3.55,3.93l3,4.33c-.58,0-1.07-.06-1.55-.11-.07,0-.15-.09-.2-.16L13,28.82C14.13,27.56,15.25,26.31,16.39,25.07Z"/></g></g></svg>