<svg xmlns="http://www.w3.org/2000/svg" viewBox="0 0 16.62 11.59"><defs><style>.cls-1{fill:#fff;}</style></defs><title>editor</title><g id="Layer_2" data-name="Layer 2"><g id="Capa_1" data-name="Capa 1"><path class="cls-1" d="M16.62,6,13.36,9.87A.51.51,0,0,1,13,10c-.45,0-.91,0-1.47,0L15,6l-3.2-4.2,1.59,0c.07,0,.14.11.18.17Z"/><path class="cls-1" d="M1.65,5.63C2.7,7,3.75,8.38,4.85,9.84c-.57,0-1.06,0-1.55,0-.07,0-.15-.08-.21-.15C2.06,8.31,1,7,0,5.59L3.27,1.71a.5.5,0,0,1,.29-.16c.46,0,.93,0,1.49,0Z"/><path class="cls-1" d="M10.93,0c-.28.9-.54,1.75-.81,2.61-.89,2.85-1.79,5.7-2.67,8.56-.08.29-.2.41-.51.38s-.79,0-1.25-.05c.28-.9.54-1.75.81-2.6C7.39,6.09,8.29,3.24,9.17.38c.09-.3.21-.41.52-.37S10.48,0,10.93,0Z"/></g></g></svg>