<svg xmlns="http://www.w3.org/2000/svg" xmlns:xlink="http://www.w3.org/1999/xlink" viewBox="0 0 132.62 132.62"><defs><style>.cls-1{isolation:isolate;}.cls-2{fill:#fff;}.cls-3{fill:url(#Degradado_sin_nombre_14);}.cls-4{fill:url(#Degradado_sin_nombre_14-2);}.cls-5{fill:url(#Degradado_sin_nombre_14-3);}.cls-6{opacity:0.19;}.cls-11,.cls-7{fill:#1d1d1b;}.cls-8{fill:#c6c6c6;}.cls-9{fill:url(#Degradado_sin_nombre_14-4);}.cls-10{fill:url(#Degradado_sin_nombre_14-5);}.cls-11{opacity:0.58;}.cls-12{fill:#00aab9;}.cls-13{fill:#ededed;}.cls-14{opacity:0.04;}.cls-15{mix-blend-mode:multiply;}.cls-16{fill:#fefefe;}.cls-17{fill:#fefdfd;}.cls-18{fill:#fdfcfc;}.cls-19{fill:#fdfbfc;}.cls-20{fill:#fcfafb;}.cls-21{fill:#fbf9fa;}.cls-22{fill:#fbf8f9;}.cls-23{fill:#faf7f8;}.cls-24{fill:#faf6f7;}.cls-25{fill:#f9f5f6;}.cls-26{fill:#f8f4f6;}.cls-27{fill:#f8f3f5;}.cls-28{fill:#f7f2f4;}.cls-29{fill:#f6f1f3;}.cls-30{fill:#f6f0f2;}.cls-31{fill:#f5eff1;}.cls-32{fill:#f5eef0;}.cls-33{fill:#f4edef;}.cls-34{fill:#f3ecef;}.cls-35{fill:#f3ebee;}.cls-36{fill:#f2eaed;}.cls-37{fill:#f2e9ec;}.cls-38{fill:#f1e8eb;}.cls-39{fill:#f0e7ea;}.cls-40{fill:#f0e6e9;}.cls-41{fill:#efe6e9;}.cls-42{fill:#efe5e8;}.cls-43{fill:#eee4e7;}.cls-44{fill:#ede3e6;}.cls-45{fill:#ede2e5;}.cls-46{fill:#ece1e4;}.cls-47{fill:#ece0e3;}.cls-48{fill:#ebdfe3;}.cls-49{fill:#eadee2;}.cls-50{fill:#eadde1;}.cls-51{fill:#e9dce0;}.cls-52{fill:#e9dbdf;}.cls-53{fill:#e8dade;}.cls-54{fill:#e7d9dd;}.cls-55{fill:#e7d8dc;}.cls-56{fill:#e6d7dc;}.cls-57{fill:#e5d6db;}.cls-58{fill:#e5d5da;}.cls-59{fill:#e4d4d9;}.cls-60{fill:#e4d3d8;}.cls-61{fill:#e3d2d7;}.cls-62{fill:#e2d1d6;}.cls-63{fill:#e2d0d6;}.cls-64{fill:#e1cfd5;}.cls-65{fill:#e1ced4;}.cls-66{fill:#e0cdd3;}</style><linearGradient id="Degradado_sin_nombre_14" x1="25.8" y1="70.09" x2="114.04" y2="70.09" gradientUnits="userSpaceOnUse"><stop offset="0.16" stop-color="#00c8c8"/><stop offset="0.64" stop-color="#9add6a"/><stop offset="0.85" stop-color="#658eba"/></linearGradient><linearGradient id="Degradado_sin_nombre_14-2" x1="66.22" y1="58.72" x2="106.6" y2="58.72" xlink:href="#Degradado_sin_nombre_14"/><linearGradient id="Degradado_sin_nombre_14-3" x1="18.39" y1="71.19" x2="64.51" y2="71.19" xlink:href="#Degradado_sin_nombre_14"/><linearGradient id="Degradado_sin_nombre_14-4" x1="114.92" y1="9.18" x2="46.95" y2="126.81" xlink:href="#Degradado_sin_nombre_14"/><linearGradient id="Degradado_sin_nombre_14-5" x1="14.27" y1="17.32" x2="91.2" y2="113.29" xlink:href="#Degradado_sin_nombre_14"/></defs><title>vincet-logo</title><g class="cls-1"><g id="Layer_2" data-name="Layer 2"><g id="Capa_1" data-name="Capa 1"><circle class="cls-2" cx="66.31" cy="66.31" r="66.31"/><path class="cls-3" d="M110.33,22.87,99.45,45.58,94.07,56.8a0,0,0,0,1,0,0v0L90.52,64.2h0l-3.37,7.05L73.45,99.84l-.74,1.56-2.58,5.38-2.25,4.69-2.29-4.79-4.2-8.76L60.49,96h0L52,78.38A1.93,1.93,0,0,1,53,75.79l.14-.07a2,2,0,0,1,2.6.92l7,14.56,1,2L67.83,102l2.59-5.39-4.2-8.76-1-2.21L58.26,71.23,57,68.67,44.29,42.07l-3.23-6.74-4.33-9A9.61,9.61,0,0,0,25.8,21.1l9.45,19.72L39,48.7l9.54,19.92.56,1.15a1.94,1.94,0,0,1-.56,2.37h0a1.65,1.65,0,0,1-.36.22l-.14.07a1.93,1.93,0,0,1-1.81-.07L59.08,99.14l.86,1.8,4.2,8.76h0l2.29,4.78,2.31,4.83,0,0a9.12,9.12,0,0,0,2.41-1,9.26,9.26,0,0,0,3.1-2.91,10.24,10.24,0,0,0,.69-1.21L113.1,34.6A9.6,9.6,0,0,0,110.33,22.87Z"/><path class="cls-4" d="M95.71,26.28l-4.39,9.16L88.09,42.2,75.38,68.73,74.15,71.3h0l-7,14.59-.94,2,4.2,8.76.81-1.69L82.06,72.31l1.8-3.75,9.41-19.65L97.07,41l9.53-19.89A9.63,9.63,0,0,0,95.71,26.28Z"/><path class="cls-5" d="M64.5,119.5h0l-.12-.24-.11-.24L62,114.24l-4.2-8.77L41.09,70.64A2,2,0,0,1,41,69.29,2,2,0,0,1,42,68h0a2,2,0,0,1,1.81.07l-1.58-3.29h0L38,56,32.89,45.27,22.15,22.84A9.6,9.6,0,0,0,19.34,34.6l38.14,79.62a9.55,9.55,0,0,0,2.83,3.49,9.68,9.68,0,0,0,3.75,1.74l.45.08Z"/><g class="cls-6"><path class="cls-7" d="M54.49,98.93,41,70.73a2,2,0,0,1-.13-1.35,2,2,0,0,1,1-1.25h0a1.94,1.94,0,0,1,1.8.07l-1.57-3.3h0L37.92,56.1l-.13-.27A58.74,58.74,0,0,0,31.85,61l19.78,41.31Q53,100.57,54.49,98.93Z"/><path class="cls-7" d="M74,71.39h0L67.05,86l-.94,2,.65,1.37a47.16,47.16,0,0,1,8.89-3.76L82,72.4l1.79-3.76L93.16,49a15.29,15.29,0,0,0-1-2,58.3,58.3,0,0,0-5.71-1.64L75.26,68.82Z"/><path class="cls-7" d="M94,56.9v0l-3.53,7.37h0l-3.37,7L80.84,84.27a48.09,48.09,0,0,1,8.8-.84l14.67-30.64a57.69,57.69,0,0,0-6.66-3.61L94,56.89Z"/><path class="cls-7" d="M49,69.85a2,2,0,0,1-.55,2.37h0a1.32,1.32,0,0,1-.35.23l-.14.07a2,2,0,0,1-1.81-.07L57.42,96c.67-.61,1.35-1.21,2-1.78L51.92,78.47a2,2,0,0,1,.92-2.6l.13-.06a1.94,1.94,0,0,1,2.6.92l7,14.55.22.47q1.93-1.32,4-2.45l-.65-1.37-1-2.2L58.15,71.31l-1.23-2.55-9.15-19.1a58.54,58.54,0,0,0-6.63,3.79l7.31,15.26Z"/></g><path class="cls-8" d="M58.26,71.23a20,20,0,0,1-6.65,1.13,20.57,20.57,0,0,1-3-.22,1.94,1.94,0,0,0,.56-2.37l-.56-1.15a14.86,14.86,0,0,1-6.31-3.81l1.58,3.29A2,2,0,0,0,42,68h0a2,2,0,0,0-1,1.25,20,20,0,0,1-9.37-17,19.73,19.73,0,0,1,1.3-7.07L38,56a13.73,13.73,0,0,1-.1-1.7A14.91,14.91,0,0,1,39,48.7l-3.77-7.88a19.89,19.89,0,0,1,5.81-5.49l3.23,6.74L57,68.67Z"/><path class="cls-8" d="M100.62,52.34A20,20,0,0,1,87.14,71.26l3.37-7.05a14.9,14.9,0,0,1-6.65,4.35l-1.8,3.75c-.48,0-1,0-1.46,0a19.92,19.92,0,0,1-6.45-1.06l1.23-2.57L88.09,42.2a14.94,14.94,0,0,1,6.19,12.11,14.51,14.51,0,0,1-.21,2.49l5.38-11.22A19.92,19.92,0,0,1,100.62,52.34Z"/><path class="cls-9" d="M94.28,54.31a14.51,14.51,0,0,1-.21,2.49,0,0,0,0,1,0,0v0a14.79,14.79,0,0,1-3.54,7.37h0a14.9,14.9,0,0,1-6.65,4.35,15,15,0,0,1-8.48.17L88.09,42.2a14.94,14.94,0,0,1,6.19,12.11Z"/><path class="cls-10" d="M57,68.67a14.54,14.54,0,0,1-4.14.59,14.93,14.93,0,0,1-10.64-4.45h0A14.83,14.83,0,0,1,38,56a13.73,13.73,0,0,1-.1-1.7,14.89,14.89,0,0,1,6.35-12.24Z"/><path class="cls-11" d="M56.9,68.39A13.26,13.26,0,0,1,43.79,65h0a13.19,13.19,0,0,1-3.73-7.8A12.5,12.5,0,0,1,40,55.64,13.2,13.2,0,0,1,45.6,44.79Z"/><path class="cls-11" d="M75.7,68a13.2,13.2,0,0,0,13.11-3.43h0a13.19,13.19,0,0,0,3.73-7.8,12.75,12.75,0,0,0,.09-1.51,13.08,13.08,0,0,0-1-5A13.24,13.24,0,0,0,87,44.42Z"/><path class="cls-12" d="M90.51,64.21l-3.37,7.05a19,19,0,0,1-5.08,1l1.8-3.75A14.9,14.9,0,0,0,90.51,64.21Z"/><path class="cls-8" d="M72,70.44,66.11,83.56,60.19,70.44a20,20,0,0,0,5.92-4.29A19.89,19.89,0,0,0,72,70.44Z"/><circle class="cls-13" cx="45.6" cy="54.95" r="3.62"/><circle class="cls-13" cx="87.2" cy="55.13" r="3.62"/><circle class="cls-13" cx="42.93" cy="50.88" r="2"/><circle class="cls-13" cx="89.87" cy="51.07" r="2"/><g class="cls-14"><path class="cls-7" d="M64.39,119.47l-.23-.49-2.29-4.78-4.21-8.77-3.17-6.62q-1.52,1.64-2.86,3.42l5.73,12a9.36,9.36,0,0,0,2.84,3.48A9.54,9.54,0,0,0,64,119.41a3.58,3.58,0,0,0,.45.09Z"/><polygon class="cls-7" points="64.4 119.5 64.4 119.5 64.4 119.5 64.4 119.5"/><path class="cls-7" d="M80.84,84.15l-7.5,15.66-.75,1.55L70,106.75l-2.25,4.68-2.29-4.78-4.2-8.77L60.38,96h0l-.91-1.89c-.7.57-1.38,1.16-2,1.78L59,99.11l.86,1.8,4.2,8.76h0l2.29,4.78,2.31,4.82,0,0a9.71,9.71,0,0,0,6.2-5.13L89.64,83.31A48.17,48.17,0,0,0,80.84,84.15Z"/><path class="cls-7" d="M67.72,102l2.58-5.38-3.54-7.4q-2.06,1.13-4,2.45l.76,1.57Z"/></g><g class="cls-15"><ellipse class="cls-2" cx="68.6" cy="122.43" rx="30.64" ry="5.71"/><ellipse class="cls-16" cx="68.6" cy="122.43" rx="30.18" ry="5.62"/><ellipse class="cls-17" cx="68.61" cy="122.43" rx="29.73" ry="5.53"/><ellipse class="cls-18" cx="68.62" cy="122.43" rx="29.27" ry="5.43"/><ellipse class="cls-19" cx="68.63" cy="122.43" rx="28.81" ry="5.34"/><ellipse class="cls-20" cx="68.63" cy="122.43" rx="28.35" ry="5.25"/><ellipse class="cls-21" cx="68.64" cy="122.43" rx="27.9" ry="5.16"/><ellipse class="cls-22" cx="68.65" cy="122.43" rx="27.44" ry="5.06"/><ellipse class="cls-23" cx="68.66" cy="122.43" rx="26.98" ry="4.97"/><ellipse class="cls-24" cx="68.67" cy="122.43" rx="26.52" ry="4.88"/><ellipse class="cls-25" cx="68.67" cy="122.43" rx="26.07" ry="4.78"/><ellipse class="cls-26" cx="68.68" cy="122.43" rx="25.61" ry="4.69"/><ellipse class="cls-27" cx="68.69" cy="122.43" rx="25.15" ry="4.6"/><ellipse class="cls-28" cx="68.7" cy="122.43" rx="24.69" ry="4.5"/><ellipse class="cls-29" cx="68.7" cy="122.43" rx="24.24" ry="4.41"/><ellipse class="cls-30" cx="68.71" cy="122.43" rx="23.78" ry="4.32"/><ellipse class="cls-31" cx="68.72" cy="122.43" rx="23.32" ry="4.23"/><ellipse class="cls-32" cx="68.73" cy="122.43" rx="22.86" ry="4.13"/><ellipse class="cls-33" cx="68.73" cy="122.43" rx="22.41" ry="4.04"/><ellipse class="cls-34" cx="68.74" cy="122.43" rx="21.95" ry="3.95"/><ellipse class="cls-35" cx="68.75" cy="122.43" rx="21.49" ry="3.85"/><ellipse class="cls-36" cx="68.76" cy="122.43" rx="21.03" ry="3.76"/><ellipse class="cls-37" cx="68.77" cy="122.43" rx="20.58" ry="3.67"/><ellipse class="cls-38" cx="68.77" cy="122.43" rx="20.12" ry="3.58"/><ellipse class="cls-39" cx="68.78" cy="122.43" rx="19.66" ry="3.48"/><ellipse class="cls-40" cx="68.79" cy="122.43" rx="19.2" ry="3.39"/><ellipse class="cls-41" cx="68.8" cy="122.43" rx="18.75" ry="3.3"/><ellipse class="cls-42" cx="68.8" cy="122.43" rx="18.29" ry="3.2"/><ellipse class="cls-43" cx="68.81" cy="122.43" rx="17.83" ry="3.11"/><ellipse class="cls-44" cx="68.82" cy="122.43" rx="17.37" ry="3.02"/><ellipse class="cls-45" cx="68.83" cy="122.43" rx="16.92" ry="2.92"/><ellipse class="cls-46" cx="68.83" cy="122.43" rx="16.46" ry="2.83"/><ellipse class="cls-47" cx="68.84" cy="122.43" rx="16" ry="2.74"/><ellipse class="cls-48" cx="68.85" cy="122.43" rx="15.54" ry="2.65"/><ellipse class="cls-49" cx="68.86" cy="122.43" rx="15.09" ry="2.55"/><ellipse class="cls-50" cx="68.87" cy="122.43" rx="14.63" ry="2.46"/><ellipse class="cls-51" cx="68.87" cy="122.43" rx="14.17" ry="2.37"/><ellipse class="cls-52" cx="68.88" cy="122.43" rx="13.71" ry="2.27"/><ellipse class="cls-53" cx="68.89" cy="122.43" rx="13.26" ry="2.18"/><ellipse class="cls-54" cx="68.9" cy="122.43" rx="12.8" ry="2.09"/><ellipse class="cls-55" cx="68.9" cy="122.43" rx="12.34" ry="1.99"/><ellipse class="cls-56" cx="68.91" cy="122.43" rx="11.88" ry="1.9"/><ellipse class="cls-57" cx="68.92" cy="122.43" rx="11.43" ry="1.81"/><ellipse class="cls-58" cx="68.93" cy="122.43" rx="10.97" ry="1.72"/><ellipse class="cls-59" cx="68.93" cy="122.43" rx="10.51" ry="1.62"/><ellipse class="cls-60" cx="68.94" cy="122.43" rx="10.05" ry="1.53"/><ellipse class="cls-61" cx="68.95" cy="122.43" rx="9.6" ry="1.44"/><ellipse class="cls-62" cx="68.96" cy="122.43" rx="9.14" ry="1.34"/><ellipse class="cls-63" cx="68.97" cy="122.43" rx="8.68" ry="1.25"/><ellipse class="cls-64" cx="68.97" cy="122.43" rx="8.22" ry="1.16"/><ellipse class="cls-65" cx="68.98" cy="122.43" rx="7.77" ry="1.06"/><ellipse class="cls-66" cx="68.99" cy="122.43" rx="7.31" ry="0.97"/></g></g></g></g></svg>