<?xml version="1.0" standalone="no"?><!-- Generator: Gravit.io --><svg xmlns="http://www.w3.org/2000/svg" xmlns:xlink="http://www.w3.org/1999/xlink" style="isolation:isolate" viewBox="176.597 416 317.403 415.989" width="317.403" height="415.989"><path d=" M 445.91 416 L 176.597 477.313 L 176.597 793.512 L 445.91 831.989 L 445.91 416 Z  M 494 424.181 L 449.082 431.487 L 474.772 439.81 L 473.481 800.392 L 460.095 809.12 L 493.999 810.65 L 494 424.181 Z  M 333.215 518.174 C 331.283 565.558 307.295 714.466 297.079 753.341 C 292.44 752.742 287.799 752.137 283.156 751.536 C 293.209 713.603 317.512 567.767 319.292 521.323 C 323.929 520.271 328.573 519.223 333.215 518.173 L 333.215 518.174 Z  M 354.323 535.574 C 369.981 556.262 383.833 578.751 397.153 602.509 C 397.068 612.962 396.962 622.847 396.933 633.296 C 383.388 658.997 369.758 683.627 355.481 706.378 C 355.587 694.276 355.566 680.731 355.545 668.634 C 365.158 652.95 374.679 636.477 384.167 619.439 C 384.167 619.444 384.178 618.243 384.178 618.248 C 374.849 602.586 365.357 587.533 355.447 573.253 C 355.32 560.784 355.007 548.022 354.321 535.575 L 354.323 535.574 Z  M 264.399 553.117 L 264.411 553.117 C 264.407 553.123 264.406 553.134 264.399 553.138 C 265.062 563.963 265.333 575.071 265.46 585.917 C 255.39 600.975 244.797 615.438 234.147 629.162 L 234.147 630.091 C 244.603 642.327 255.176 655.319 265.525 668.917 C 265.546 679.41 265.589 691.265 265.504 701.761 C 250.792 680.538 234.936 660.544 219.514 642.329 C 219.556 634.413 219.62 626.877 219.755 618.957 C 235.488 598.543 251.02 576.437 264.401 553.138 C 264.4 553.132 264.401 553.121 264.401 553.117 L 264.399 553.117 Z " fill="rgb(255,255,255)"/></svg>