<?xml version="1.0" standalone="no"?><!-- Generator: Gravit.io --><svg xmlns="http://www.w3.org/2000/svg" xmlns:xlink="http://www.w3.org/1999/xlink" style="isolation:isolate" viewBox="801.743 349.86 114.514 197.14" width="114.514" height="197.14"><path d=" M 822.434 387.326 C 824.024 388.771 835.632 387.37 840.136 392.174 C 844.494 396.825 842.858 409.663 844.987 411.334 C 842.775 409.485 832.84 407.665 828.74 403.21 C 825.122 399.28 823.989 388.684 822.434 387.326 L 822.434 387.326 Z  M 834.317 390.368 C 830.305 390.368 827.053 393.619 827.051 397.63 C 827.051 399.557 827.817 401.405 829.179 402.768 C 830.542 404.13 832.39 404.896 834.317 404.896 C 836.244 404.896 838.092 404.13 839.454 402.768 C 840.817 401.405 841.582 399.557 841.582 397.63 C 841.581 393.619 838.328 390.368 834.317 390.368 L 834.317 390.368 Z  M 896.83 387.326 C 895.24 388.771 883.632 387.37 879.128 392.174 C 874.77 396.825 876.406 409.663 874.277 411.334 C 876.489 409.485 886.424 407.665 890.524 403.21 C 894.142 399.28 895.275 388.684 896.83 387.326 L 896.83 387.326 Z  M 884.947 390.368 C 888.959 390.368 892.211 393.619 892.213 397.63 C 892.213 399.557 891.447 401.405 890.085 402.768 C 888.722 404.13 886.874 404.896 884.947 404.896 C 883.021 404.896 881.172 404.13 879.81 402.768 C 878.447 401.405 877.682 399.557 877.682 397.63 C 877.683 393.619 880.936 390.368 884.947 390.368 L 884.947 390.368 Z  M 857.721 404.403 C 854.658 404.49 851.218 405.617 850.998 410.968 C 850.777 416.348 858.702 423.921 859.001 423.822 C 859.299 423.921 867.225 416.348 867.004 410.968 C 866.753 404.852 862.294 404.255 859.001 404.42 C 858.589 404.399 858.158 404.393 857.721 404.404 L 857.721 404.403 Z  M 859.001 349.86 C 859.001 349.86 827.185 350.066 817.775 355.679 C 808.365 361.291 806.431 363.523 803.467 375.078 C 800.503 386.632 800.626 411.722 809.773 422.125 C 818.92 432.527 844.206 431.34 844.206 431.34 C 844.206 431.34 827.316 427.292 821.411 418.245 C 815.506 409.197 807.622 399.219 817.289 379.929 C 826.955 360.638 859.19 378.2 859.001 382.354 C 858.812 378.2 891.044 360.638 900.711 379.929 C 910.377 399.219 902.494 409.197 896.588 418.245 C 890.683 427.292 873.793 431.34 873.793 431.34 C 873.793 431.34 899.082 432.527 908.229 422.125 C 917.376 411.722 917.496 386.632 914.532 375.078 C 911.568 363.523 909.634 361.291 900.224 355.679 C 890.814 350.066 859.001 349.86 859.001 349.86 Z  M 822.024 479.367 C 833.59 486.513 838.801 500.113 841.901 510.71 C 841.903 517.077 841.473 523.169 840.883 528.857 C 834.107 521.286 828.513 514.008 824.092 507.038 C 825.081 496.689 824.711 487.124 822.024 479.367 L 822.024 479.367 Z  M 816.751 471.435 C 822.981 479.474 824.42 491.747 823.243 505.679 C 817.923 497.038 814.452 488.88 812.862 481.252 C 814.451 478.045 815.751 474.758 816.751 471.435 Z  M 818.653 463.173 C 819.146 463.247 821.929 463.685 825.463 465.039 C 828.864 466.342 832.65 468.443 834.965 471.66 C 839.767 483.874 841.541 495.928 841.839 507.21 C 838.528 496.855 833.019 484.569 821.729 478.047 L 821.625 478.227 C 820.489 475.276 818.995 472.607 817.086 470.281 C 817.748 467.92 818.272 465.545 818.653 463.173 L 818.653 463.173 Z  M 818.456 450.739 C 818.815 460.201 816.989 470.283 812.564 479.69 C 810.667 468.923 812.597 459.233 818.456 450.739 Z  M 821.02 447.374 C 826.596 454.527 830.772 461.776 833.868 468.989 C 831.503 466.739 828.518 465.187 825.803 464.147 C 822.167 462.753 819.296 462.303 818.791 462.228 C 819.417 457.925 819.578 453.649 819.34 449.495 C 819.873 448.78 820.429 448.071 821.02 447.374 Z  M 895.994 479.356 C 884.428 486.502 879.218 500.102 876.117 510.699 C 876.116 517.066 876.546 523.157 877.136 528.845 C 883.911 521.275 889.506 513.997 893.926 507.027 C 892.938 496.677 893.308 487.113 895.994 479.356 L 895.994 479.356 Z  M 901.268 471.423 C 895.038 479.463 893.598 491.736 894.776 505.668 C 900.095 497.026 903.566 488.869 905.156 481.241 C 903.567 478.034 902.267 474.747 901.268 471.423 Z  M 899.365 463.162 C 898.873 463.236 896.089 463.673 892.556 465.028 C 889.155 466.331 885.369 468.431 883.054 471.649 C 878.251 483.863 876.477 495.917 876.179 507.199 C 879.49 496.843 885 484.558 896.29 478.036 L 896.394 478.216 C 897.53 475.265 899.024 472.596 900.933 470.27 C 900.271 467.908 899.747 465.534 899.365 463.162 L 899.365 463.162 Z  M 899.562 450.728 C 899.204 460.19 901.029 470.272 905.455 479.679 C 907.352 468.912 905.422 459.221 899.562 450.728 Z  M 896.999 447.362 C 891.422 454.515 887.246 461.765 884.151 468.978 C 886.516 466.728 889.5 465.176 892.216 464.136 C 895.852 462.742 898.723 462.292 899.228 462.217 C 898.602 457.914 898.441 453.638 898.679 449.484 C 898.145 448.769 897.59 448.06 896.999 447.362 Z  M 879.173 437.37 C 877.887 437.316 876.611 437.435 875.369 437.767 C 863.907 441.28 854.039 440.812 842.65 437.778 C 841.407 437.447 840.132 437.327 838.845 437.381 C 833.271 437.618 827.493 441.132 823.352 444.914 C 847.416 475.531 846.631 508.184 843.896 532.168 C 849.08 537.616 854.319 542.621 859.001 547 C 863.858 542.363 869.839 536.744 874.123 532.157 C 871.389 508.172 870.603 475.519 894.667 444.902 C 890.526 441.121 884.748 437.606 879.174 437.37 L 879.173 437.37 Z " fill="rgb(255,255,255)"/></svg>