<?xml version="1.0" encoding="UTF-8" standalone="no"?>
<svg
   xmlns:dc="http://purl.org/dc/elements/1.1/"
   xmlns:cc="http://creativecommons.org/ns#"
   xmlns:rdf="http://www.w3.org/1999/02/22-rdf-syntax-ns#"
   xmlns:svg="http://www.w3.org/2000/svg"
   xmlns="http://www.w3.org/2000/svg"
   id="svg2188"
   version="1.1"
   viewBox="0 0 39.6875 39.687499"
   height="150"
   width="150">
  <defs
     id="defs2182">
    <clipPath
       id="clipPath1569"
       clipPathUnits="userSpaceOnUse">
      <path
         id="path1567"
         d="m 350.578,446.329 c -1.646,-0.111 -3.295,-0.364 -4.931,-0.766 v 0 l 28.695,-59.868 11.449,-23.917 28.956,-60.455 1.673,-3.475 c 1.217,-2.542 0.456,-5.518 -1.673,-7.191 v 0 h -0.022 c -0.325,-0.282 -0.694,-0.5 -1.086,-0.695 v 0 l -0.412,-0.195 c -1.825,-0.869 -3.866,-0.739 -5.495,0.217 v 0 l 38.926,-81.287 2.629,-5.474 12.729,-26.59 v -0.021 l 6.951,-14.51 7.017,-14.642 0.066,-0.108 c 2.563,0.673 5.04,1.715 7.32,3.084 v 0 c 3.693,2.128 6.929,5.126 9.384,8.82 v 0 c 0.783,1.151 1.498,2.389 2.107,3.67 v 0 L 610.6,404.573 c 6.061,12.598 2.216,27.392 -8.406,35.603 v 0 l -33.019,-68.927 -16.313,-34.061 -0.023,-0.022 -0.021,-0.065 -10.732,-22.375 -0.021,-0.022 -10.232,-21.397 -41.555,-86.739 -2.259,-4.714 -7.82,-16.357 -6.821,-14.207 -6.951,14.51 -12.752,26.612 -2.737,5.734 v 0.022 l -25.656,53.525 c -1.412,2.933 -0.173,6.474 2.781,7.886 v 0 l 0.413,0.195 c 2.933,1.412 6.473,0.174 7.885,-2.78 v 0 l 21.18,-44.185 2.955,-6.191 12.729,-26.589 7.842,16.336 -12.73,26.611 -3.193,6.69 -20.963,43.75 -3.735,7.755 -38.667,80.722 -9.797,20.464 -13.165,27.479 c -4.725,9.821 -14.222,15.814 -24.365,16.493 v 0 z" />
    </clipPath>
    <clipPath
       id="clipPath1587"
       clipPathUnits="userSpaceOnUse">
      <path
         id="path1585"
         d="M 0,0 H 936 V 504 H 0 Z" />
    </clipPath>
    <clipPath
       id="clipPath1599"
       clipPathUnits="userSpaceOnUse">
      <path
         id="path1597"
         d="M 326.053,404.573 441.792,162.926 c 2.064,-4.3 5.04,-7.885 8.602,-10.578 v 0 c 3.367,-2.564 7.256,-4.366 11.383,-5.279 v 0 c 0.457,-0.109 0.912,-0.195 1.369,-0.26 v 0 l -0.044,0.086 -0.347,0.739 -0.348,0.738 -6.951,14.511 -12.752,26.611 -50.635,105.703 c -0.63,1.325 -0.739,2.78 -0.392,4.084 v 0 c 0.436,1.608 1.543,3.02 3.172,3.802 v 0 l 0.043,0.021 c 1.804,0.869 3.846,0.739 5.475,-0.195 v 0 l -4.779,9.993 -0.022,0.021 -12.773,26.676 -15.619,32.606 -32.606,68.058 c -10.71,-8.212 -14.576,-23.048 -8.515,-35.69" />
    </clipPath>
    <clipPath
       id="clipPath1617"
       clipPathUnits="userSpaceOnUse">
      <path
         id="path1615"
         d="M 0,0 H 936 V 504 H 0 Z" />
    </clipPath>
    <clipPath
       id="clipPath1681"
       clipPathUnits="userSpaceOnUse">
      <path
         id="path1679"
         d="m 496.12,300.997 c 3.825,-1.042 7.843,-1.607 11.992,-1.607 v 0 c 4.801,0 9.428,0.738 13.751,2.129 v 0 c 7.907,2.497 14.858,7.125 20.202,13.185 v 0 l 0.022,0.022 c 5.495,6.17 9.297,13.859 10.731,22.375 v 0 l 0.021,0.065 0.023,0.022 c 0.412,2.454 0.629,4.996 0.629,7.581 v 0 c 0,5.778 -1.086,11.318 -3.063,16.379 v 0 c -3.171,8.234 -8.689,15.293 -15.727,20.376 v 0 z" />
    </clipPath>
    <clipPath
       id="clipPath1699"
       clipPathUnits="userSpaceOnUse">
      <path
         id="path1697"
         d="m 385.79,361.778 c -2.128,-5.235 -3.302,-10.992 -3.302,-17.009 v 0 c 0,-1.738 0.109,-3.476 0.304,-5.17 v 0 c 1.174,-10.362 5.823,-19.637 12.774,-26.676 v 0 l 0.022,-0.022 c 5.234,-5.344 11.794,-9.362 19.159,-11.578 v 0 c 4.149,-1.259 8.559,-1.933 13.121,-1.933 v 0 c 4.366,0 8.581,0.608 12.578,1.781 v 0 l -38.667,80.722 c -7.104,-4.974 -12.687,-11.947 -15.989,-20.115" />
    </clipPath>
    <clipPath
       id="clipPath1717"
       clipPathUnits="userSpaceOnUse">
      <path
         id="path1715"
         d="M 0,0 H 936 V 504 H 0 Z" />
    </clipPath>
    <clipPath
       id="clipPath1737"
       clipPathUnits="userSpaceOnUse">
      <path
         id="path1735"
         d="M 0,0 H 936 V 504 H 0 Z" />
    </clipPath>
  </defs>
  <metadata
     id="metadata2185">
    <rdf:RDF>
      <cc:Work
         rdf:about="">
        <dc:format>image/svg+xml</dc:format>
        <dc:type
           rdf:resource="http://purl.org/dc/dcmitype/StillImage" />
        <dc:title></dc:title>
      </cc:Work>
    </rdf:RDF>
  </metadata>
  <g
     transform="translate(0,-257.3125)"
     id="layer1">
    <g
       id="g2015"
       transform="matrix(0.10549625,0,0,-0.10549625,-29.563364,308.44691)">
      <g
         id="g1563">
        <g
           id="g1565"
           clip-path="url(#clipPath1569)">
          <path
             d="M 345.647,448.778 H 616.662 V 147.351 H 345.647 Z"
             style="fill:#00bfd6;fill-opacity:1;fill-rule:nonzero;stroke:none"
             id="path1571" />
          <g
             id="g1573"
             transform="translate(621.496,296.8729)">
            <path
               d="m 0,0 c 0,-78.388 -63.546,-141.934 -141.933,-141.934 -39.194,0 -74.678,15.887 -100.363,41.572 -12.842,12.842 -23.234,28.135 -30.416,45.115 -3.592,8.49 -6.38,17.403 -8.271,26.643 h 4.134 v 57.208 h -4.134 c 1.891,9.24 4.679,18.152 8.271,26.643 7.182,16.98 17.574,32.273 30.416,45.115 25.685,25.684 61.169,41.571 100.363,41.571 C -63.546,141.933 0,78.387 0,0"
               style="fill:#00bfd6;fill-opacity:1;fill-rule:nonzero;stroke:none"
               id="path1575" />
          </g>
          <g
             id="g1577"
             transform="translate(550.5292,296.8729)">
            <path
               d="m 0,0 c 0,-39.194 -31.773,-70.967 -70.966,-70.967 -39.194,0 -70.967,31.773 -70.967,70.967 0,39.193 31.773,70.966 70.967,70.966 C -31.773,70.966 0,39.193 0,0"
               style="fill:#00bfd6;fill-opacity:1;fill-rule:nonzero;stroke:none"
               id="path1579" />
          </g>
        </g>
      </g>
      <g
         id="g1581">
        <g
           id="g1583"
           clip-path="url(#clipPath1587)">
          <g
             id="g1589"
             transform="translate(557.8351,429.8358)">
            <path
               d="m 0,0 -13.316,-27.805 -9.818,-20.507 -38.58,-80.527 -3.714,-7.798 h -0.022 l -21.202,-44.293 -2.845,-5.93 12.729,-26.611 2.477,5.148 32.867,68.623 5.452,11.383 28.566,59.629 11.534,24.091 28.914,60.368 C 19.986,18.899 6.061,12.599 0,0"
               style="fill:#8adb66;fill-opacity:1;fill-rule:nonzero;stroke:none"
               id="path1591" />
          </g>
        </g>
      </g>
      <g
         id="g1593">
        <g
           id="g1595"
           clip-path="url(#clipPath1599)">
          <path
             d="M 319.992,440.263 H 463.146 V 146.809 H 319.992 Z"
             style="fill:#1fb8c4;fill-opacity:1;fill-rule:nonzero;stroke:none"
             id="path1601" />
          <g
             id="g1603"
             transform="translate(464.1459,293.5356)">
            <path
               d="M 0,0 V -81.281 -88.7 h 2.136 c -2.838,-2.343 -5.791,-4.552 -8.849,-6.617 -6.115,-4.131 -12.649,-7.69 -19.525,-10.598 -13.753,-5.817 -28.872,-9.033 -44.743,-9.033 -15.872,0 -30.991,3.216 -44.744,9.033 -6.876,2.908 -13.41,6.467 -19.526,10.598 -3.057,2.065 -6.01,4.274 -8.849,6.617 -1.419,1.172 -2.809,2.376 -4.17,3.613 h 3.116 V 85.087 h -3.116 c 1.361,1.237 2.751,2.442 4.17,3.612 2.839,2.343 5.792,4.552 8.849,6.618 6.116,4.132 12.65,7.69 19.526,10.599 13.753,5.816 28.872,9.033 44.744,9.033 15.871,0 30.99,-3.217 44.743,-9.033 6.876,-2.909 13.41,-6.467 19.525,-10.599 3.058,-2.066 6.011,-4.275 8.849,-6.618 H 0 Z"
               style="fill:#1fb8c4;fill-opacity:1;fill-rule:nonzero;stroke:none"
               id="path1605" />
          </g>
          <g
             id="g1607"
             transform="translate(450.6384,293.5356)">
            <path
               d="m 0,0 c 0,-31.742 -25.732,-57.474 -57.474,-57.474 -31.742,0 -57.474,25.732 -57.474,57.474 0,31.742 25.732,57.474 57.474,57.474 C -25.732,57.474 0,31.742 0,0"
               style="fill:#00c7c7;fill-opacity:1;fill-rule:nonzero;stroke:none"
               id="path1609" />
          </g>
        </g>
      </g>
      <g
         id="g1611">
        <g
           id="g1613"
           clip-path="url(#clipPath1617)">
          <g
             id="g1619"
             transform="translate(397.4411,303.6884)">
            <path
               d="m 0,0 c -0.858,0 -1.728,-0.189 -2.549,-0.584 l -0.043,-0.022 c -0.465,-0.223 -0.887,-0.497 -1.264,-0.813 0.285,0.205 0.592,0.388 0.92,0.546 l 0.044,0.021 c 0.82,0.396 1.69,0.584 2.548,0.584 1.028,0 2.038,-0.27 2.926,-0.779 L 2.307,-0.471 C 1.581,-0.162 0.795,0 0,0 m -33.113,20.97 c -0.106,-0.107 -0.213,-0.213 -0.319,-0.32 l 60.05,-125.372 c 0.037,0.049 0.074,0.097 0.111,0.146 l -0.107,0.223 c 0.06,0.078 0.119,0.156 0.178,0.234 L 8.626,-66.173 Z"
               style="fill:#d4d4d4;fill-opacity:1;fill-rule:nonzero;stroke:none"
               id="path1621" />
          </g>
          <g
             id="g1623"
             transform="translate(417.3712,241.3925)">
            <path
               d="M 0,0 C -3.583,-1.666 -7.367,-2.974 -11.305,-3.877 L 6.87,-41.823 c 2.642,3.462 5.431,6.805 8.368,10.013 z"
               style="fill:#1f99a3;fill-opacity:1;fill-rule:nonzero;stroke:none"
               id="path1625" />
          </g>
          <g
             id="g1627"
             transform="translate(397.4409,303.6884)">
            <path
               d="m 0,0 c -0.858,0 -1.728,-0.188 -2.549,-0.584 l -0.043,-0.022 c -0.465,-0.223 -0.888,-0.498 -1.265,-0.814 0.001,10e-4 0.001,10e-4 0.002,10e-4 0.376,0.316 0.798,0.59 1.263,0.813 l 0.043,0.022 C -1.728,-0.189 -0.858,0 0,0 v 0 m -29.77,24.222 c -1.128,-1.069 -2.243,-2.153 -3.342,-3.252 L 8.626,-66.173 c 3.938,0.903 7.721,2.211 11.304,3.877 L -5.716,-8.759 c -0.63,1.325 -0.738,2.781 -0.391,4.084 0.037,0.137 0.079,0.272 0.125,0.405 -10.616,6.737 -19.002,16.69 -23.788,28.492"
               style="fill:#05a8a6;fill-opacity:1;fill-rule:nonzero;stroke:none"
               id="path1629" />
          </g>
          <g
             id="g1631"
             transform="translate(496.9048,303.0828)">
            <path
               d="m 0,0 -1.127,-2.353 -3.715,-7.799 h -0.022 l -21.201,-44.293 -2.61,-5.437 0.108,-0.225 2.011,-4.205 -2.011,4.205 2.846,5.93 21.201,44.293 h 0.022 l 3.714,7.799 0.973,2.032 C 0.126,-0.036 0.063,-0.018 0,0 m 32.979,68.836 -1.633,-3.409 1.644,3.406 c -0.003,0.001 -0.007,0.002 -0.011,0.003"
               style="fill:#d4d4d4;fill-opacity:1;fill-rule:nonzero;stroke:none"
               id="path1633" />
          </g>
          <g
             id="g1635"
             transform="translate(468.2303,243.2007)">
            <path
               d="m 0,0 -0.236,-0.493 1.842,-3.85 c 0.048,0.026 0.095,0.052 0.143,0.078 l 0.139,-0.291 c 0.077,0.042 0.154,0.085 0.231,0.126 l -2.011,4.205 z"
               style="fill:#05a1b2;fill-opacity:1;fill-rule:nonzero;stroke:none"
               id="path1637" />
          </g>
          <g
             id="g1639"
             transform="translate(492.407,293.1992)">
            <path
               d="m 0,0 h -0.022 l -21.201,-44.293 -2.846,-5.931 2.011,-4.204 c 8.405,4.578 17.308,8.35 26.614,11.211 l 19.103,39.886 0.119,0.248 C 22.396,-3.198 20.994,-3.237 19.572,-3.237 12.707,-3.237 6.125,-2.108 0,-0.001 Z"
               style="fill:#78b861;fill-opacity:1;fill-rule:nonzero;stroke:none"
               id="path1641" />
          </g>
          <g
             id="g1643"
             transform="translate(542.0646,314.7043)">
            <path
               d="m 0,0 c -0.153,-0.173 -0.308,-0.346 -0.463,-0.517 l -10.111,-21.148 -18.587,-38.796 c 0.078,0.015 0.157,0.029 0.236,0.044 l 18.694,39.02 v 0 z M 21.664,45.623 10.905,23.159 c -0.034,-0.226 -0.07,-0.451 -0.108,-0.676 l 11.044,23.059 c -0.059,0.027 -0.118,0.054 -0.177,0.081"
               style="fill:#d4d4d4;fill-opacity:1;fill-rule:nonzero;stroke:none"
               id="path1645" />
          </g>
          <g
             id="g1647"
             transform="translate(572.5126,355.9789)">
            <path
               d="m 0,0 c 0.149,-1.732 0.225,-3.486 0.225,-5.258 0,-19.068 -8.779,-36.084 -22.515,-47.211 0.203,-2.186 0.307,-4.398 0.307,-6.637 0,-14.899 -4.591,-28.724 -12.436,-40.141 0.438,0.005 0.875,0.008 1.313,0.009 l -0.177,-0.37 c 0.057,0 0.116,0.001 0.173,0.001 L 11.428,-6.616 C 7.709,-4.273 3.898,-2.066 0,0"
               style="fill:#05a1b2;fill-opacity:1;fill-rule:nonzero;stroke:none"
               id="path1649" />
          </g>
          <g
             id="g1651"
             transform="translate(550.2229,303.5095)">
            <path
               d="m 0,0 c -5.433,-4.402 -11.641,-7.881 -18.39,-10.202 h 0.001 l -18.694,-39.02 c 8.105,1.499 16.437,2.351 24.954,2.445 7.845,11.416 12.435,25.242 12.435,40.14 C 0.306,-4.398 0.203,-2.186 0,0"
               style="fill:#05a1b2;fill-opacity:1;fill-rule:nonzero;stroke:none"
               id="path1653" />
          </g>
          <g
             id="g1655"
             transform="translate(431.0249,280.3575)">
            <path
               d="M 0,0 C -0.857,0 -1.727,-0.188 -2.549,-0.583 L -2.962,-0.779 C -3.425,-1 -3.846,-1.274 -4.221,-1.589 c 0.284,0.204 0.589,0.386 0.916,0.542 l 0.412,0.196 c 0.822,0.395 1.692,0.583 2.549,0.583 2.202,0 4.32,-1.237 5.336,-3.363 l 21.18,-44.185 0.674,-1.411 c 0.045,0.031 0.09,0.062 0.136,0.093 l -0.132,0.276 c 0.073,0.05 0.146,0.1 0.22,0.15 l -0.554,1.16 -21.18,44.184 C 4.32,-1.237 2.201,0 0,0 m -23.638,9.359 34.232,-71.481 c 0.042,0.038 0.084,0.076 0.126,0.115 l -0.122,0.254 c 0.067,0.061 0.135,0.123 0.202,0.185 l -14.269,29.796 -18.229,38.067 -1.315,2.746 c -0.214,0.093 -0.423,0.199 -0.625,0.318 m 6.807,11.777 0.21,-0.438 1.672,-3.476 c 1.171,-2.444 0.511,-5.292 -1.436,-6.994 0.029,0.023 0.057,0.047 0.086,0.072 h 0.021 c 2.129,1.672 2.89,4.648 1.673,7.19 l -1.673,3.476 c -0.185,0.055 -0.369,0.112 -0.553,0.17"
               style="fill:#d4d4d4;fill-opacity:1;fill-rule:nonzero;stroke:none"
               id="path1657" />
          </g>
          <g
             id="g1659"
             transform="translate(427.5561,248.5859)">
            <path
               d="m 0,0 14.269,-29.797 c 1.919,1.753 3.885,3.454 5.896,5.103 l -6.286,13.116 C 8.769,-8.317 4.108,-4.422 0,0 m -19.544,40.813 1.314,-2.746 c -0.115,0.8 -0.217,1.604 -0.305,2.413 -0.346,0.08 -0.684,0.191 -1.009,0.333"
               style="fill:#05a1b2;fill-opacity:1;fill-rule:nonzero;stroke:none"
               id="path1661" />
          </g>
          <g
             id="g1663"
             transform="translate(443.7772,293.2742)">
            <path
               d="m 0,0 c -6.186,-2.147 -12.846,-3.312 -19.776,-3.312 -3.15,0 -6.235,0.239 -9.254,0.695 h -0.022 c -0.028,-0.024 -0.056,-0.048 -0.085,-0.072 -0.077,-0.067 -0.156,-0.132 -0.236,-0.196 h -0.023 c -0.325,-0.282 -0.694,-0.499 -1.086,-0.695 l -0.412,-0.195 c -0.826,-0.394 -1.697,-0.582 -2.553,-0.582 -0.443,0 -0.882,0.05 -1.31,0.149 0.089,-0.809 0.191,-1.613 0.306,-2.413 l 18.23,-38.067 c 4.107,-4.422 8.769,-8.317 13.879,-11.579 l -16.496,34.419 c -1.256,2.607 -0.415,5.697 1.865,7.342 0.375,0.316 0.796,0.589 1.259,0.81 l 0.413,0.196 c 0.822,0.396 1.692,0.583 2.549,0.583 2.201,0 4.32,-1.237 5.336,-3.364 l 21.18,-44.184 0.554,-1.16 c 3.79,2.58 7.706,4.989 11.741,7.208 l -1.842,3.851 -3.194,6.69 -20.962,43.75 z"
               style="fill:#05a1b2;fill-opacity:1;fill-rule:nonzero;stroke:none"
               id="path1665" />
          </g>
          <g
             id="g1667"
             transform="translate(444.1814,293.416)">
            <path
               d="m 0,0 c -6.3,-2.237 -13.099,-3.454 -20.18,-3.454 -3.15,0 -6.235,0.239 -9.254,0.695 2.129,1.673 2.889,4.649 1.672,7.191 l -1.672,3.475 c -7.365,2.216 -13.925,6.234 -19.16,11.578 l 4.779,-9.992 c -1.629,0.934 -3.671,1.064 -5.474,0.195 l -0.044,-0.021 c -1.629,-0.782 -2.736,-2.194 -3.171,-3.802 -17.074,10.731 -28.435,29.76 -28.435,51.44 0,7.56 1.39,14.815 3.931,21.484 l 15.619,-32.606 c -0.196,1.694 -0.304,3.432 -0.304,5.17 0,6.017 1.173,11.774 3.302,17.009 l -11.448,23.917 c 4.67,6.669 10.688,12.36 17.639,16.661 L -42.403,88.478 -3.736,7.755 Z"
               style="fill:#c7c7c7;fill-opacity:1;fill-rule:nonzero;stroke:none"
               id="path1669" />
          </g>
          <g
             id="g1671"
             transform="translate(572.7377,350.7211)">
            <path
               d="m 0,0 c 0,-26.61 -17.096,-49.224 -40.904,-57.414 l 10.231,21.397 c -5.344,-6.06 -12.295,-10.687 -20.201,-13.185 l -5.454,-11.383 c -1.455,-0.13 -2.932,-0.174 -4.431,-0.174 -6.865,0 -13.447,1.129 -19.572,3.236 l 3.714,7.799 38.58,80.527 c 7.039,-5.083 12.556,-12.143 15.728,-20.376 1.976,-5.061 3.062,-10.601 3.062,-16.379 0,-2.585 -0.217,-5.127 -0.629,-7.581 L -3.563,20.528 C -1.26,14.12 0,7.212 0,0"
               style="fill:#c7c7c7;fill-opacity:1;fill-rule:nonzero;stroke:none"
               id="path1673" />
          </g>
        </g>
      </g>
      <g
         id="g1675">
        <g
           id="g1677"
           clip-path="url(#clipPath1681)">
          <path
             d="m 496.121,381.524 h 57.37 V 299.39 h -57.37 z"
             style="fill:#1fb8c4;fill-opacity:1;fill-rule:nonzero;stroke:none"
             id="path1683" />
          <g
             id="g1685"
             transform="translate(560.2272,340.457)">
            <path
               d="m 0,0 c 0,-19.563 -15.858,-35.422 -35.421,-35.422 -19.563,0 -35.422,15.859 -35.422,35.422 0,19.563 15.859,35.421 35.422,35.421 C -15.858,35.421 0,19.563 0,0"
               style="fill:#1fb8c4;fill-opacity:1;fill-rule:nonzero;stroke:none"
               id="path1687" />
          </g>
          <g
             id="g1689"
             transform="translate(542.5168,340.457)">
            <path
               d="m 0,0 c 0,-9.781 -7.93,-17.71 -17.711,-17.71 -9.781,0 -17.71,7.929 -17.71,17.71 0,9.781 7.929,17.711 17.71,17.711 C -7.93,17.711 0,9.781 0,0"
               style="fill:#00c7c7;fill-opacity:1;fill-rule:nonzero;stroke:none"
               id="path1691" />
          </g>
        </g>
      </g>
      <g
         id="g1693">
        <g
           id="g1695"
           clip-path="url(#clipPath1699)">
          <path
             d="m 382.489,381.894 h 57.957 v -82.503 h -57.957 z"
             style="fill:#1fb8c4;fill-opacity:1;fill-rule:nonzero;stroke:none"
             id="path1701" />
          <g
             id="g1703"
             transform="translate(447.1147,340.6414)">
            <path
               d="m 0,0 c 0,-19.687 -15.96,-35.647 -35.647,-35.647 -19.688,0 -35.648,15.96 -35.648,35.647 0,19.688 15.96,35.647 35.648,35.647 C -15.96,35.647 0,19.688 0,0"
               style="fill:#1fb8c4;fill-opacity:1;fill-rule:nonzero;stroke:none"
               id="path1705" />
          </g>
          <g
             id="g1707"
             transform="translate(429.291,340.6414)">
            <path
               d="m 0,0 c 0,-9.844 -7.98,-17.823 -17.824,-17.823 -9.843,0 -17.824,7.979 -17.824,17.823 0,9.844 7.981,17.824 17.824,17.824 C -7.98,17.824 0,9.844 0,0"
               style="fill:#00c7c7;fill-opacity:1;fill-rule:nonzero;stroke:none"
               id="path1709" />
          </g>
        </g>
      </g>
      <g
         id="g1711">
        <g
           id="g1713"
           clip-path="url(#clipPath1717)">
          <g
             id="g1719"
             transform="translate(405.8705,373.6565)">
            <path
               d="m 0,0 c -0.036,-0.025 -0.073,-0.051 -0.11,-0.076 l 16.613,-34.68 17.708,-36.968 c 0.122,0.035 0.243,0.069 0.364,0.105 z"
               style="fill:#7d7d7a;fill-opacity:1;fill-rule:nonzero;stroke:none"
               id="path1721" />
          </g>
        </g>
      </g>
      <g
         id="g1723"
         transform="translate(405.7609,373.5801)">
        <path
           d="m 0,0 v 0 l 7.273,-15.183 9.339,-19.497 v 0 z"
           style="fill:#126169;fill-opacity:1;fill-rule:nonzero;stroke:none"
           id="path1725" />
      </g>
      <g
         id="g1727"
         transform="translate(422.3733,338.9)">
        <path
           d="m 0,0 v 0 l 3.912,-8.167 8.266,-17.256 5.53,-11.544 v 0 z"
           style="fill:#126169;fill-opacity:1;fill-rule:nonzero;stroke:none"
           id="path1729" />
      </g>
      <g
         id="g1731">
        <g
           id="g1733"
           clip-path="url(#clipPath1737)">
          <g
             id="g1739"
             transform="translate(434.5511,313.4771)">
            <path
               d="m 0,0 c -6.22,-5.291 -14.279,-8.483 -23.084,-8.483 -0.344,0 -0.687,0.005 -1.028,0.015 2.227,-1.152 4.578,-2.105 7.028,-2.837 3.709,-1.118 7.652,-1.715 11.732,-1.715 3.771,0 7.416,0.504 10.882,1.476 z"
               style="fill:#1c5e61;fill-opacity:1;fill-rule:nonzero;stroke:none"
               id="path1741" />
          </g>
          <g
             id="g1743"
             transform="translate(405.7609,373.5801)">
            <path
               d="m 0,0 c -6.3,-4.408 -11.251,-10.566 -14.187,-17.771 -1.904,-4.645 -2.952,-9.752 -2.952,-15.09 0,-1.542 0.097,-3.085 0.272,-4.587 1.049,-9.194 5.205,-17.424 11.421,-23.668 l 0.019,-0.019 c 2.94,-2.977 6.346,-5.491 10.105,-7.436 0.341,-0.01 0.685,-0.015 1.028,-0.015 8.806,0 16.864,3.192 23.084,8.483 l -8.266,17.256 c -3.198,-4.773 -8.641,-7.915 -14.818,-7.915 -9.843,0 -17.823,7.98 -17.823,17.823 0,9.844 7.98,17.824 17.823,17.824 0.528,0 1.05,-0.023 1.567,-0.068 z"
               style="fill:#1c5e61;fill-opacity:1;fill-rule:nonzero;stroke:none"
               id="path1745" />
          </g>
          <g
             id="g1747"
             transform="translate(411.4672,358.4651)">
            <path
               d="m 0,0 c -9.844,0 -17.824,-7.98 -17.824,-17.824 0,-9.843 7.98,-17.823 17.824,-17.823 6.177,0 11.62,3.142 14.818,7.915 l -3.912,8.167 -9.34,19.497 C 1.05,-0.023 0.528,0 0,0"
               style="fill:#126663;fill-opacity:1;fill-rule:nonzero;stroke:none"
               id="path1749" />
          </g>
          <g
             id="g1751"
             transform="translate(528.2509,368.5095)">
            <path
               d="m 0,0 -31.553,-65.367 c 0.069,-0.02 0.138,-0.04 0.207,-0.06 z M 3.018,6.253 1.644,3.406 C 1.705,3.392 1.766,3.378 1.826,3.364 L 3.162,6.152 C 3.114,6.186 3.066,6.219 3.018,6.253"
               style="fill:#7d7d7a;fill-opacity:1;fill-rule:nonzero;stroke:none"
               id="path1753" />
          </g>
          <g
             id="g1755"
             transform="translate(529.8951,371.9158)">
            <path
               d="M 0,0 -1.644,-3.406 -32.99,-68.833 c 0.063,-0.018 0.126,-0.036 0.189,-0.053 l 4.935,10.299 8.186,17.087 13.273,27.704 6.589,13.754 C 0.121,-0.028 0.061,-0.014 0,0"
               style="fill:#6b6b69;fill-opacity:1;fill-rule:nonzero;stroke:none"
               id="path1757" />
          </g>
          <g
             id="g1759"
             transform="translate(502.0287,313.3289)">
            <path
               d="m 0,0 -4.934,-10.3 c 3.455,-0.966 7.089,-1.466 10.849,-1.466 4.078,0 8.022,0.597 11.73,1.715 1.64,0.489 3.235,1.078 4.778,1.759 C 13.888,-8.208 6.074,-5.105 0,0"
               style="fill:#1c5e61;fill-opacity:1;fill-rule:nonzero;stroke:none"
               id="path1761" />
          </g>
          <g
             id="g1763"
             transform="translate(531.413,374.6615)">
            <path
               d="m 0,0 -1.336,-2.788 -6.589,-13.754 c 0.435,0.032 0.875,0.048 1.318,0.048 9.781,0 17.711,-7.929 17.711,-17.71 0,-9.782 -7.93,-17.711 -17.711,-17.711 -6.053,0 -11.397,3.036 -14.591,7.669 l -8.186,-17.087 c 6.074,-5.105 13.888,-8.208 22.423,-8.291 4.654,2.055 8.837,4.952 12.353,8.513 l 0.019,0.019 c 6.215,6.244 10.371,14.474 11.419,23.668 0.176,1.503 0.273,3.045 0.273,4.587 0,5.338 -1.049,10.446 -2.952,15.09 C 11.221,-10.554 6.282,-4.407 0,0"
               style="fill:#1c5e61;fill-opacity:1;fill-rule:nonzero;stroke:none"
               id="path1765" />
          </g>
          <g
             id="g1767"
             transform="translate(524.8061,358.1678)">
            <path
               d="m 0,0 c -0.444,0 -0.883,-0.016 -1.318,-0.048 l -13.273,-27.704 c 3.194,-4.633 8.538,-7.669 14.591,-7.669 9.781,0 17.711,7.929 17.711,17.71 C 17.711,-7.93 9.781,0 0,0"
               style="fill:#126663;fill-opacity:1;fill-rule:nonzero;stroke:none"
               id="path1769" />
          </g>
          <g
             id="g1771"
             transform="translate(542.0648,314.7045)">
            <path
               d="m 0,0 -10.231,-21.397 c -4.888,-1.716 -10.058,-2.802 -15.424,-3.171 l 5.453,11.382 C -12.295,-10.688 -5.344,-6.061 0,0"
               style="fill:#00abba;fill-opacity:1;fill-rule:nonzero;stroke:none"
               id="path1773" />
          </g>
          <g
             id="g1775"
             transform="translate(485.9549,295.8055)">
            <path
               d="M 0,0 -17.965,-39.818 -35.93,0 c 6.778,3.215 12.86,7.646 17.965,13.012 C -12.86,7.646 -6.778,3.215 0,0"
               style="fill:#c7c7c7;fill-opacity:1;fill-rule:nonzero;stroke:none"
               id="path1777" />
          </g>
          <g
             id="g1779"
             transform="translate(416.7455,342.8138)">
            <path
               d="m 0,0 c 0,-6.069 -4.92,-10.989 -10.989,-10.989 -6.07,0 -10.99,4.92 -10.99,10.989 0,6.069 4.92,10.99 10.99,10.99 C -4.92,10.99 0,6.069 0,0"
               style="fill:#ededed;fill-opacity:1;fill-rule:nonzero;stroke:none"
               id="path1781" />
          </g>
          <g
             id="g1783"
             transform="translate(521.0126,342.2631)">
            <path
               d="m 0,0 c 0,-6.069 4.92,-10.989 10.989,-10.989 6.069,0 10.99,4.92 10.99,10.989 0,6.069 -4.921,10.989 -10.99,10.989 C 4.92,10.989 0,6.069 0,0"
               style="fill:#ededed;fill-opacity:1;fill-rule:nonzero;stroke:none"
               id="path1785" />
          </g>
          <g
             id="g1787"
             transform="translate(403.7118,355.1542)">
            <path
               d="m 0,0 c 0,-3.345 -2.712,-6.057 -6.056,-6.057 -3.345,0 -6.057,2.712 -6.057,6.057 0,3.345 2.712,6.056 6.057,6.056 C -2.712,6.056 0,3.345 0,0"
               style="fill:#ededed;fill-opacity:1;fill-rule:nonzero;stroke:none"
               id="path1789" />
          </g>
          <g
             id="g1791"
             transform="translate(534.0462,354.6029)">
            <path
               d="m 0,0 c 0,-3.345 2.711,-6.057 6.057,-6.057 3.344,0 6.056,2.712 6.056,6.057 0,3.345 -2.712,6.057 -6.056,6.057 C 2.711,6.057 0,3.345 0,0"
               style="fill:#ededed;fill-opacity:1;fill-rule:nonzero;stroke:none"
               id="path1793" />
          </g>
          <g
             id="g1795"
             transform="translate(424.3484,199.3457)">
            <path
               d="m 0,0 c -0.059,-0.078 -0.119,-0.156 -0.178,-0.233 l 17.282,-36.085 c 2.064,-4.301 5.04,-7.885 8.602,-10.578 2.861,-2.179 6.099,-3.808 9.539,-4.808 -3.314,1.007 -6.433,2.6 -9.199,4.706 -3.562,2.694 -6.539,6.278 -8.603,10.579 L 6.856,-14.315 Z"
               style="fill:#f5f5f5;fill-opacity:1;fill-rule:nonzero;stroke:none"
               id="path1797" />
          </g>
          <g
             id="g1799"
             transform="translate(442.3548,189.6143)">
            <path
               d="m 0,0 c -1.466,-0.695 -2.948,-1.36 -4.447,-1.994 -2.2,-0.93 -4.436,-1.795 -6.703,-2.589 l 10.587,-22.105 c 2.064,-4.3 5.041,-7.885 8.602,-10.579 2.767,-2.105 5.885,-3.698 9.199,-4.706 0.609,-0.177 1.224,-0.334 1.845,-0.471 0.456,-0.108 0.912,-0.195 1.368,-0.261 l -0.042,0.087 -0.696,1.477 -6.952,14.511 -12.752,26.611 z"
               style="fill:#1fb0bd;fill-opacity:1;fill-rule:nonzero;stroke:none"
               id="path1801" />
          </g>
          <g
             id="g1803"
             transform="translate(432.728,209.7123)">
            <path
               d="m 0,0 c -0.04,-0.043 -0.079,-0.086 -0.119,-0.13 l 0.115,-0.239 c -2.94,-3.202 -5.731,-6.54 -8.376,-9.998 l 6.857,-14.315 c 2.267,0.795 4.503,1.66 6.703,2.59 1.499,0.634 2.981,1.299 4.447,1.994 z"
               style="fill:#1fb0bd;fill-opacity:1;fill-rule:nonzero;stroke:none"
               id="path1805" />
          </g>
          <g
             id="g1807"
             transform="translate(424.2415,199.569)">
            <path
               d="m 0,0 c -0.06,-0.078 -0.119,-0.156 -0.178,-0.234 l 0.107,-0.223 c 0.059,0.078 0.119,0.156 0.178,0.234 z"
               style="fill:#cccccc;fill-opacity:1;fill-rule:nonzero;stroke:none"
               id="path1809" />
          </g>
          <g
             id="g1811"
             transform="translate(432.6092,209.5826)">
            <path
               d="m 0,0 c -2.938,-3.208 -5.726,-6.551 -8.368,-10.014 l 0.107,-0.223 c 2.645,3.458 5.436,6.796 8.376,9.997 z"
               style="fill:#1f949e;fill-opacity:1;fill-rule:nonzero;stroke:none"
               id="path1813" />
          </g>
          <g
             id="g1815"
             transform="translate(441.9469,218.5352)">
            <path
               d="M 0,0 C -0.068,-0.062 -0.135,-0.123 -0.202,-0.185 L 4.372,-9.737 7,-15.211 19.731,-41.8 v -0.022 l 6.95,-14.511 7.016,-14.641 0.066,-0.109 c 0.082,0.022 0.164,0.044 0.246,0.066 l -3.643,7.603 -3.345,6.98 -6.952,14.511 v 0.021 L 7.34,-15.313 4.711,-9.839 Z m 70.956,35.708 c -0.063,-0.012 -0.126,-0.023 -0.19,-0.035 l -22.775,-47.539 -2.259,-4.714 -7.82,-16.357 -6.676,-13.903 0.195,-0.405 6.821,14.207 7.82,16.357 2.259,4.714 10.865,22.679 11.803,24.636 c -0.079,-0.015 -0.158,-0.03 -0.237,-0.045 z"
               style="fill:#f5f5f5;fill-opacity:1;fill-rule:nonzero;stroke:none"
               id="path1817" />
          </g>
          <g
             id="g1819"
             transform="translate(489.0991,155.2548)">
            <path
               d="m 0,0 c -3.153,-0.209 -6.331,-0.315 -9.536,-0.315 -2.431,0 -4.85,0.061 -7.251,0.182 l 3.644,-7.603 c 2.475,0.674 4.866,1.694 7.074,3.019 C -3.859,-3.444 -1.813,-1.859 0,0"
               style="fill:#00b8cf;fill-opacity:1;fill-rule:nonzero;stroke:none"
               id="path1821" />
          </g>
          <g
             id="g1823"
             transform="translate(539.2297,256.3711)">
            <path
               d="m 0,0 c -0.465,-0.001 -0.929,-0.005 -1.393,-0.011 -8.824,-12.668 -21.672,-22.324 -36.694,-27.113 l -10.865,-22.679 -2.259,-4.714 -7.82,-16.357 -6.821,-14.207 -0.194,0.405 -0.146,-0.304 -6.951,14.511 -12.752,26.61 -2.737,5.735 v 0.022 l -2.746,5.73 c -0.044,-0.036 -0.087,-0.071 -0.13,-0.107 l 0.125,-0.262 c -2.012,-1.646 -3.98,-3.345 -5.9,-5.095 l 4.712,-9.839 2.628,-5.473 12.729,-26.59 v -0.021 l 6.952,-14.511 3.345,-6.98 c 2.4,-0.12 4.82,-0.182 7.25,-0.182 3.206,0 6.384,0.106 9.536,0.316 1.217,1.247 2.329,2.618 3.315,4.102 0.783,1.151 1.5,2.389 2.108,3.671 z"
               style="fill:#00b8cf;fill-opacity:1;fill-rule:nonzero;stroke:none"
               id="path1825" />
          </g>
          <g
             id="g1827"
             transform="translate(537.8365,256.36)">
            <path
               d="M 0,0 C -8.495,-0.109 -16.806,-0.971 -24.891,-2.477 L -36.693,-27.113 C -21.672,-22.324 -8.824,-12.668 0,0"
               style="fill:#00bacf;fill-opacity:1;fill-rule:nonzero;stroke:none"
               id="path1829" />
          </g>
          <g
             id="g1831"
             transform="translate(513.1396,254.2874)">
            <path
               d="M 0,0 C -0.079,-0.015 -0.158,-0.029 -0.236,-0.044 L -0.43,-0.449 c 0.078,0.015 0.158,0.03 0.236,0.044 z"
               style="fill:#cccccc;fill-opacity:1;fill-rule:nonzero;stroke:none"
               id="path1833" />
          </g>
          <g
             id="g1835"
             transform="translate(539.4067,256.7405)">
            <path
               d="m 0,0 c -0.438,-0.001 -0.875,-0.004 -1.313,-0.008 -0.085,-0.125 -0.171,-0.248 -0.257,-0.372 0.464,0.005 0.928,0.009 1.393,0.011 z"
               style="fill:#059cad;fill-opacity:1;fill-rule:nonzero;stroke:none"
               id="path1837" />
          </g>
          <g
             id="g1839"
             transform="translate(538.094,256.7321)">
            <path
               d="m 0,0 c -8.517,-0.094 -16.849,-0.946 -24.954,-2.445 l -0.194,-0.404 c 8.085,1.506 16.395,2.368 24.891,2.477 C -0.171,-0.248 -0.086,-0.125 0,0"
               style="fill:#059cad;fill-opacity:1;fill-rule:nonzero;stroke:none"
               id="path1841" />
          </g>
          <g
             id="g1843"
             transform="translate(441.8252,218.7893)">
            <path
               d="m 0,0 c -0.067,-0.062 -0.135,-0.123 -0.202,-0.185 l 0.121,-0.254 c 0.068,0.062 0.135,0.123 0.203,0.185 z"
               style="fill:#cccccc;fill-opacity:1;fill-rule:nonzero;stroke:none"
               id="path1845" />
          </g>
          <g
             id="g1847"
             transform="translate(447.7213,223.8923)">
            <path
               d="m 0,0 c -2.012,-1.649 -3.977,-3.35 -5.896,-5.103 l 0.122,-0.254 c 1.919,1.75 3.887,3.449 5.9,5.095 z"
               style="fill:#059cad;fill-opacity:1;fill-rule:nonzero;stroke:none"
               id="path1849" />
          </g>
          <g
             id="g1851"
             transform="translate(458.2265,231.3728)">
            <path
               d="m 0,0 c -0.074,-0.05 -0.146,-0.1 -0.22,-0.15 l 2.149,-4.503 12.73,-26.589 0.146,0.304 L 2.27,-4.755 1.231,-2.578 Z"
               style="fill:#f5f5f5;fill-opacity:1;fill-rule:nonzero;stroke:none"
               id="path1853" />
          </g>
          <g
             id="g1855"
             transform="translate(459.4572,228.7944)">
            <path
               d="m 0,0 1.039,-2.177 12.535,-26.183 7.696,16.032 -4.553,9.519 C 10.937,-2.537 5.337,-1.573 0,0"
               style="fill:#00b8cf;fill-opacity:1;fill-rule:nonzero;stroke:none"
               id="path1857" />
          </g>
          <g
             id="g1859"
             transform="translate(470.1186,238.6451)">
            <path
               d="M 0,0 C -0.048,-0.026 -0.095,-0.052 -0.143,-0.078 -4.181,-2.293 -8.1,-4.697 -11.892,-7.272 l 1.231,-2.579 c 5.336,-1.573 10.937,-2.537 16.716,-2.809 z"
               style="fill:#00bacf;fill-opacity:1;fill-rule:nonzero;stroke:none"
               id="path1861" />
          </g>
          <g
             id="g1863"
             transform="translate(469.9795,238.936)">
            <path
               d="m 0,0 c -0.048,-0.026 -0.095,-0.052 -0.143,-0.079 l 0.139,-0.29 c 0.048,0.026 0.095,0.052 0.143,0.078 z"
               style="fill:#059cad;fill-opacity:1;fill-rule:nonzero;stroke:none"
               id="path1865" />
          </g>
          <g
             id="g1867"
             transform="translate(458.0947,231.649)">
            <path
               d="m 0,0 c -0.073,-0.05 -0.147,-0.1 -0.22,-0.15 l 0.132,-0.276 c 0.073,0.05 0.146,0.1 0.22,0.15 z"
               style="fill:#cccccc;fill-opacity:1;fill-rule:nonzero;stroke:none"
               id="path1869" />
          </g>
          <g
             id="g1871"
             transform="translate(469.8364,238.8574)">
            <path
               d="m 0,0 c -4.036,-2.22 -7.952,-4.628 -11.742,-7.208 l 0.132,-0.277 c 3.793,2.576 7.711,4.98 11.749,7.194 z"
               style="fill:#059cad;fill-opacity:1;fill-rule:nonzero;stroke:none"
               id="path1873" />
          </g>
        </g>
      </g>
    </g>
  </g>
</svg>
