<?xml version="1.0" encoding="UTF-8" standalone="no"?>
<svg xmlns:dc="http://purl.org/dc/elements/1.1/" xmlns:cc="http://creativecommons.org/ns#" xmlns:rdf="http://www.w3.org/1999/02/22-rdf-syntax-ns#" xmlns:svg="http://www.w3.org/2000/svg" xmlns="http://www.w3.org/2000/svg" id="svg901" version="1.1" viewBox="0 0 10.583334 13.229167" height="50" width="40">
  <defs id="defs895" />
  <metadata id="metadata898">
    <rdf:RDF>
      <cc:Work rdf:about="">
        <dc:format>image/svg+xml</dc:format>
        <dc:type rdf:resource="http://purl.org/dc/dcmitype/StillImage" />
        <dc:title></dc:title>
      </cc:Work>
    </rdf:RDF>
  </metadata>
  <g transform="translate(0,-283.77082)" id="layer1">
    <path id="path852" d="m 8.5418872,284.39946 a 0.49664032,0.49664032 0 0 0 -0.3070722,0.11216 l -6.9093997,5.48539 a 0.49664032,0.49664032 0 0 0 0,0.77805 l 6.9093997,5.48616 a 0.49675969,0.49675969 0 1 0 0.6180221,-0.77786 l -6.420373,-5.09762 6.420373,-5.09703 a 0.49664032,0.49664032 0 0 0 -0.3109499,-0.88922 z m 0.3930032,1.96929 a 0.49664032,0.49664032 0 0 0 -0.2940729,0.10766 l -4.434788,3.52055 a 0.49664032,0.49664032 0 0 0 0,0.77806 l 4.434788,3.52133 a 0.49664032,0.49664032 0 0 0 0.8050192,-0.38932 v -7.04208 a 0.49664032,0.49664032 0 0 0 -0.5109463,-0.49621 z" style="color:#000000;font-style:normal;font-variant:normal;font-weight:normal;font-stretch:normal;font-size:medium;line-height:normal;font-family:sans-serif;font-variant-ligatures:normal;font-variant-position:normal;font-variant-caps:normal;font-variant-numeric:normal;font-variant-alternates:normal;font-feature-settings:normal;text-indent:0;text-align:start;text-decoration:none;text-decoration-line:none;text-decoration-style:solid;text-decoration-color:#000000;letter-spacing:normal;word-spacing:normal;text-transform:none;writing-mode:lr-tb;direction:ltr;text-orientation:mixed;dominant-baseline:auto;baseline-shift:baseline;text-anchor:start;white-space:normal;shape-padding:0;clip-rule:nonzero;display:inline;overflow:visible;visibility:visible;opacity:1;isolation:auto;mix-blend-mode:normal;color-interpolation:sRGB;color-interpolation-filters:linearRGB;solid-color:#000000;solid-opacity:1;vector-effect:none;fill:#ffffff;fill-opacity:1;fill-rule:evenodd;stroke:none;stroke-width:2.64583325;stroke-linecap:round;stroke-linejoin:round;stroke-miterlimit:4;stroke-dasharray:none;stroke-dashoffset:0;stroke-opacity:1;paint-order:stroke fill markers;color-rendering:auto;image-rendering:auto;shape-rendering:auto;text-rendering:auto;enable-background:accumulate" />
  </g>
</svg>
