<?xml version="1.0" encoding="UTF-8" standalone="no"?>
<svg xmlns:dc="http://purl.org/dc/elements/1.1/" xmlns:cc="http://creativecommons.org/ns#" xmlns:rdf="http://www.w3.org/1999/02/22-rdf-syntax-ns#" xmlns:svg="http://www.w3.org/2000/svg" xmlns="http://www.w3.org/2000/svg" id="svg901" version="1.1" viewBox="0 0 10.583334 13.229167" height="50" width="40">
  <defs id="defs895" />
  <metadata id="metadata898">
    <rdf:RDF>
      <cc:Work rdf:about="">
        <dc:format>image/svg+xml</dc:format>
        <dc:type rdf:resource="http://purl.org/dc/dcmitype/StillImage" />
        <dc:title></dc:title>
      </cc:Work>
    </rdf:RDF>
  </metadata>
  <g transform="translate(0,-283.77082)" id="layer1">
    <path id="path842" d="m 8.368211,284.29019 a 0.50550567,0.50550567 0 0 0 -0.3119596,0.11412 l -7.03254,5.5833 a 0.50550567,0.50550567 0 0 0 0,0.79195 l 7.03254,5.58409 a 0.50550567,0.50550567 0 1 0 0.6282648,-0.79174 l -6.5339956,-5.18862 6.5339956,-5.18802 A 0.50550567,0.50550567 0 0 0 8.368211,284.29019 Z m 0.4134472,1.9999 a 0.50550567,0.50550567 0 0 0 -0.31275,0.11412 l -4.5131618,3.5834 a 0.50550567,0.50550567 0 0 0 0,0.79195 l 4.5131618,3.58419 a 0.50562625,0.50562625 0 1 0 0.629054,-0.79175 l -4.0154066,-3.18812 4.0154066,-3.18792 a 0.50550567,0.50550567 0 0 0 -0.316304,-0.90587 z" style="color:#000000;font-style:normal;font-variant:normal;font-weight:normal;font-stretch:normal;font-size:medium;line-height:normal;font-family:sans-serif;font-variant-ligatures:normal;font-variant-position:normal;font-variant-caps:normal;font-variant-numeric:normal;font-variant-alternates:normal;font-feature-settings:normal;text-indent:0;text-align:start;text-decoration:none;text-decoration-line:none;text-decoration-style:solid;text-decoration-color:#000000;letter-spacing:normal;word-spacing:normal;text-transform:none;writing-mode:lr-tb;direction:ltr;text-orientation:mixed;dominant-baseline:auto;baseline-shift:baseline;text-anchor:start;white-space:normal;shape-padding:0;clip-rule:nonzero;display:inline;overflow:visible;visibility:visible;opacity:1;isolation:auto;mix-blend-mode:normal;color-interpolation:sRGB;color-interpolation-filters:linearRGB;solid-color:#000000;solid-opacity:1;vector-effect:none;fill:#ffffff;fill-opacity:1;fill-rule:evenodd;stroke:none;stroke-width:2.64583325;stroke-linecap:round;stroke-linejoin:round;stroke-miterlimit:4;stroke-dasharray:none;stroke-dashoffset:0;stroke-opacity:1;paint-order:stroke fill markers;color-rendering:auto;image-rendering:auto;shape-rendering:auto;text-rendering:auto;enable-background:accumulate" />
  </g>
</svg>
