<?xml version="1.0" standalone="no"?><!-- Generator: Gravit.io --><svg xmlns="http://www.w3.org/2000/svg" xmlns:xlink="http://www.w3.org/1999/xlink" style="isolation:isolate" viewBox="166.829 1321 267.949 116.645" width="267.949" height="116.645"><path d=" M 225.15 1321 C 209.682 1321 194.848 1327.145 183.91 1338.083 C 172.973 1349.021 166.829 1363.856 166.829 1379.324 C 166.83 1411.534 192.941 1437.645 225.15 1437.645 C 243.828 1437.623 261.366 1428.656 272.32 1413.527 L 329.303 1413.527 C 340.254 1428.651 357.784 1437.618 376.457 1437.645 C 408.666 1437.645 434.777 1411.534 434.778 1379.324 C 434.778 1363.856 428.634 1349.021 417.697 1338.083 C 406.759 1327.145 391.925 1321 376.457 1321 L 225.15 1321 Z  M 221.06 1352.375 L 229.237 1352.375 C 231.019 1352.375 232.454 1353.81 232.454 1355.592 L 232.454 1371.666 L 248.528 1371.666 C 250.31 1371.666 251.744 1373.1 251.744 1374.883 L 251.744 1383.059 C 251.744 1384.841 250.31 1386.276 248.528 1386.276 L 232.454 1386.276 L 232.454 1402.35 C 232.454 1404.132 231.019 1405.567 229.237 1405.567 L 221.06 1405.567 C 219.278 1405.567 217.844 1404.132 217.844 1402.35 L 217.844 1386.276 L 201.77 1386.276 C 199.988 1386.276 198.553 1384.841 198.553 1383.059 L 198.553 1374.883 C 198.553 1373.1 199.988 1371.666 201.77 1371.666 L 217.844 1371.666 L 217.844 1355.592 C 217.844 1353.81 219.278 1352.375 221.06 1352.375 Z  M 368.129 1356.817 C 373.103 1356.817 377.135 1360.849 377.135 1365.823 C 377.135 1370.486 373.591 1374.321 369.05 1374.782 C 368.747 1374.81 368.44 1374.832 368.129 1374.832 C 367.819 1374.832 367.512 1374.815 367.209 1374.782 C 365.392 1374.598 363.737 1373.873 362.403 1372.772 C 361.958 1372.405 361.548 1371.998 361.181 1371.553 C 360.997 1371.331 360.824 1371.098 360.662 1370.859 C 360.176 1370.14 359.791 1369.348 359.528 1368.503 C 359.441 1368.221 359.368 1367.932 359.308 1367.639 C 359.247 1367.346 359.2 1367.046 359.17 1366.743 C 359.139 1366.44 359.122 1366.134 359.122 1365.823 C 359.122 1365.512 359.14 1365.205 359.17 1364.903 C 359.231 1364.297 359.353 1363.711 359.528 1363.147 C 359.616 1362.865 359.719 1362.587 359.833 1362.317 C 360.402 1360.971 361.29 1359.792 362.402 1358.875 C 362.847 1358.508 363.327 1358.181 363.838 1357.904 C 364.093 1357.765 364.354 1357.638 364.623 1357.524 C 365.431 1357.182 366.3 1356.957 367.208 1356.864 C 367.511 1356.836 367.818 1356.814 368.129 1356.814 L 368.129 1356.817 Z  M 399.118 1356.817 C 404.092 1356.817 408.124 1360.849 408.124 1365.823 C 408.124 1370.797 404.092 1374.829 399.118 1374.829 C 394.144 1374.829 390.112 1370.797 390.112 1365.823 C 390.112 1360.849 394.144 1356.817 399.118 1356.817 Z  M 354.644 1387.159 C 359.617 1387.159 363.65 1391.191 363.65 1396.165 C 363.65 1401.138 359.617 1405.171 354.644 1405.171 C 349.67 1405.171 345.638 1401.139 345.638 1396.165 C 345.638 1391.191 349.67 1387.159 354.644 1387.159 Z  M 385.632 1387.159 C 390.606 1387.159 394.639 1391.191 394.639 1396.165 C 394.639 1401.139 390.606 1405.171 385.632 1405.171 C 380.659 1405.171 376.626 1401.138 376.626 1396.165 C 376.626 1391.191 380.659 1387.159 385.632 1387.159 Z " fill="rgb(255,255,255)"/></svg>