<?xml version="1.0" standalone="no"?><!-- Generator: Gravit.io --><svg xmlns="http://www.w3.org/2000/svg" xmlns:xlink="http://www.w3.org/1999/xlink" style="isolation:isolate" viewBox="250.767 1732 120.331 132.215" width="120.331" height="132.215"><path d=" M 296.169 1764.576 C 296.169 1758.91 296.169 1753.583 296.169 1751.076 L 296.169 1751.076 C 301.936 1749.142 307.743 1747.194 313.567 1745.24 C 313.58 1742.486 313.613 1739.726 313.67 1736.957 C 302.667 1740.648 291.444 1744.412 280.312 1748.146 C 280.296 1778.2 280.31 1749.101 280.299 1769.9 L 280.299 1769.9 L 296.169 1764.576 L 296.169 1764.576 Z  M 300.514 1763.119 C 300.516 1760.9 300.517 1757.691 300.52 1753.103 C 304.852 1751.65 309.198 1750.192 313.553 1748.732 C 313.533 1752.076 313.536 1755.413 313.534 1758.752 L 300.514 1763.119 L 300.514 1763.119 Z  M 317.858 1747.287 C 323.218 1745.49 328.573 1743.693 333.878 1741.914 C 333.808 1745.275 333.775 1748.624 333.759 1751.968 L 317.854 1757.303 C 317.85 1753.966 317.84 1750.631 317.858 1747.287 L 317.858 1747.287 Z  M 338.058 1750.526 C 338.074 1746.02 338.125 1741.503 338.261 1736.957 C 331.541 1739.211 324.711 1741.502 317.874 1743.795 C 317.881 1739.881 317.934 1735.952 318.053 1732 C 304.254 1736.629 289.99 1741.413 275.961 1746.119 L 275.962 1746.119 C 275.962 1750.414 275.962 1762.98 275.962 1771.354 L 275.962 1771.354 L 251.677 1779.5 L 250.767 1842.051 L 346.716 1864.215 L 371.098 1848.88 L 371.098 1765.076 L 346.716 1747.621 L 338.058 1750.526 L 338.058 1750.526 Z  M 312.669 1787.043 C 313.006 1787.036 313.356 1787.051 313.716 1787.096 C 316.6 1787.43 318.607 1789.29 318.298 1791.252 C 317.989 1793.215 315.592 1794.344 312.985 1793.917 C 310.375 1793.488 308.365 1791.683 308.474 1789.877 C 308.569 1788.299 310.307 1787.098 312.669 1787.045 L 312.669 1787.043 L 312.669 1787.043 L 312.669 1787.043 L 312.669 1787.043 Z  M 298.189 1788.25 C 300.126 1788.344 301.709 1789.191 301.981 1790.512 C 302.345 1792.274 300.254 1794.032 297.513 1794.489 C 294.748 1794.949 292.363 1793.986 292.024 1792.399 C 291.686 1790.814 293.439 1788.999 296.169 1788.418 C 296.859 1788.272 297.543 1788.22 298.189 1788.25 L 298.189 1788.25 L 298.189 1788.25 L 298.189 1788.25 L 298.189 1788.25 Z  M 283.567 1793.536 C 284.628 1793.588 285.456 1793.972 285.782 1794.696 C 286.429 1796.133 284.686 1798.175 281.919 1799.239 C 279.146 1800.305 276.521 1799.993 276.083 1798.711 C 275.65 1797.442 277.424 1795.459 279.946 1794.317 C 281.212 1793.744 282.507 1793.479 283.567 1793.535 L 283.567 1793.536 L 283.567 1793.536 L 283.567 1793.536 Z  M 302.513 1797.282 C 307.111 1797.221 311.284 1798.123 314.509 1800.075 C 318.741 1802.636 320.931 1806.821 321.001 1811.344 C 321.071 1815.892 318.981 1820.268 314.462 1823.203 C 309.911 1826.16 303.496 1827.31 296.997 1826.864 C 269.556 1825.723 270.457 1802.383 297.794 1797.657 C 299.402 1797.427 300.98 1797.301 302.513 1797.282 L 302.513 1797.282 L 302.513 1797.282 Z " fill-rule="evenodd" fill="rgb(255,255,255)"/></svg>