<?xml version="1.0" encoding="UTF-8" standalone="no"?>
<svg
   xmlns:dc="http://purl.org/dc/elements/1.1/"
   xmlns:cc="http://creativecommons.org/ns#"
   xmlns:rdf="http://www.w3.org/1999/02/22-rdf-syntax-ns#"
   xmlns:svg="http://www.w3.org/2000/svg"
   xmlns="http://www.w3.org/2000/svg"
   xml:space="preserve"
   enable-background="new 0 0 792 612"
   viewBox="0 0 350 350"
   height="350"
   width="350"
   y="0px"
   x="0px"
   id="Capa_1"
   version="1.1"><metadata
   id="metadata9"><rdf:RDF><cc:Work
       rdf:about=""><dc:format>image/svg+xml</dc:format><dc:type
         rdf:resource="http://purl.org/dc/dcmitype/StillImage" /><dc:title></dc:title></cc:Work></rdf:RDF></metadata><defs
   id="defs7" />
<path
   style="fill:#ffffff;stroke-width:0.80138993;fill-opacity:1"
   id="path2"
   d="m 300,285.63967 c -4.07186,-2.32484 -59.12655,-23.96717 -67.78396,-28.66011 -4.21211,-2.28396 -13.10674,-12.3919 -13.13959,-14.52199 -0.12021,-7.91052 -0.24843,-15.82264 -0.31174,-23.73477 -0.005,-0.59623 0.33418,-1.3303 0.7509,-1.77988 9.48044,-10.25058 16.04863,-22.11356 19.82799,-35.54325 0.15386,-0.54975 0.51289,-1.19567 0.97128,-1.47776 5.15214,-3.17431 8.534,-7.79192 10.65128,-13.32471 2.98277,-7.80073 4.85482,-15.8523 3.13183,-24.2124 -0.62188,-3.01803 -2.1341,-5.8838 -3.48765,-8.70069 -0.577,-1.19888 -0.89195,-2.1381 -0.5185,-3.48604 4.24416,-15.31697 6.87913,-30.874352 6.41112,-46.828421 -0.91038,-31.09794 -17.88943,-53.24515 -41.052,-56.82496 -6.00081,-6.69481 -13.76708,-10.11434 -22.30028,-12.08255 -12.90318,-2.97717 -25.83921,-2.38254 -38.77205,-0.18352 -20.17419,3.43235 -46.56396,16.97344 -55.453769,45.87717 -8.49874,27.63112 -4.22654,46.499041 1.270199,70.354021 0.14906,0.64752 0.0721,1.5571 -0.286099,2.07961 -4.17123,6.07934 -5.39656,12.78136 -4.4429,19.98746 0.90957,6.86952 2.51876,13.51224 6.262859,19.46977 1.95218,3.10539 4.45092,5.65541 7.52345,7.67732 0.59864,0.39428 1.16281,1.12194 1.35595,1.80633 3.79698,13.42328 10.36037,25.28145 19.87447,35.50237 0.38387,0.41192 0.68519,1.0939 0.67798,1.64526 -0.113,8.02512 -0.33579,16.04783 -0.41032,24.07295 -0.0224,2.41859 -10.99346,13.63485 -16.23135,15.83386 -9.18152,3.85389 -53.023959,20.07402 -64.519099,27.13907 31.95382,32.02995 76.140859,51.84993 124.959129,51.84993 48.85914,0.002 93.08064,-19.85363 125.04087,-51.93407 z" />
</svg>